<svg width="420" height="280" viewBox="0 0 420 280" fill="none" xmlns="http://www.w3.org/2000/svg">
  <rect width="420" height="280" rx="16" fill="#F3F6FB"/>
  <circle cx="210" cy="140" r="76" fill="#EEF2FF"/>
  <path d="M210 70C180.101 70 156 94.101 156 124C156 153.899 176.579 177.531 204 186.112V200.5C204 203.538 206.462 206 209.5 206C212.538 206 215 203.538 215 200.5V185.95C242.119 177.02 264 153.514 264 124C264 94.101 239.899 70 210 70Z" stroke="#4F46E5" stroke-width="8" stroke-linecap="round" stroke-linejoin="round"/>
  <path d="M210 92C193.43 92 180 105.43 180 122" stroke="#4F46E5" stroke-width="8" stroke-linecap="round"/>
  <path d="M210 110C203.373 110 198 115.373 198 122" stroke="#4F46E5" stroke-width="8" stroke-linecap="round"/>
  <path d="M210 92C226.57 92 240 105.43 240 122" stroke="#4F46E5" stroke-width="8" stroke-linecap="round"/>
  <path d="M230 122C230 133.046 221.046 142 210 142C198.954 142 190 133.046 190 122" stroke="#4F46E5" stroke-width="8" stroke-linecap="round"/>
  <path d="M170 132C170 164.033 192.201 190 210 190C227.799 190 250 164.033 250 132" stroke="#4F46E5" stroke-width="8" stroke-linecap="round" stroke-linejoin="round"/>
</svg>
